<svg viewBox="0 0 200 100" xmlns="http://www.w3.org/2000/svg">
  <circle cx="30" cy="30" r="4" fill="black" stroke="none" stroke-width="1" />
  <circle cx="40" cy="30" r="4" fill="black" stroke="none" stroke-width="1" />
  <circle cx="50" cy="30" r="4" fill="black" stroke="none" stroke-width="1" />
  <circle cx="60" cy="30" r="4" fill="black" stroke="none" stroke-width="1" />
  <circle cx="70" cy="30" r="4" fill="black" stroke="none" stroke-width="1" />
  <circle cx="50" cy="40" r="4" fill="black" stroke="none" stroke-width="1" />
  <circle cx="50" cy="50" r="4" fill="black" stroke="none" stroke-width="1" />
  <circle cx="50" cy="60" r="4" fill="black" stroke="none" stroke-width="1" />
  <circle cx="50" cy="70" r="4" fill="black" stroke="none" stroke-width="1" />
  <circle cx="50" cy="80" r="4" fill="black" stroke="none" stroke-width="1" />
  <circle cx="90" cy="30" r="4" fill="black" stroke="none" stroke-width="1" />
  <circle cx="90" cy="40" r="4" fill="black" stroke="none" stroke-width="1" />
  <circle cx="90" cy="50" r="4" fill="black" stroke="none" stroke-width="1" />
  <circle cx="90" cy="60" r="4" fill="black" stroke="none" stroke-width="1" />
  <circle cx="90" cy="70" r="4" fill="black" stroke="none" stroke-width="1" />
  <circle cx="90" cy="80" r="4" fill="black" stroke="none" stroke-width="1" />
  <circle cx="100" cy="30" r="4" fill="black" stroke="none" stroke-width="1" />
  <circle cx="110" cy="30" r="4" fill="black" stroke="none" stroke-width="1" />
  <circle cx="120" cy="40" r="4" fill="black" stroke="none" stroke-width="1" />
  <circle cx="120" cy="50" r="4" fill="black" stroke="none" stroke-width="1" />
  <circle cx="120" cy="60" r="4" fill="black" stroke="none" stroke-width="1" />
  <circle cx="120" cy="70" r="4" fill="black" stroke="none" stroke-width="1" />
  <circle cx="110" cy="80" r="4" fill="black" stroke="none" stroke-width="1" />
  <circle cx="100" cy="80" r="4" fill="black" stroke="none" stroke-width="1" />
  <circle cx="25.0" cy="25.0" r="2.857142857142857" fill="black" stroke="none" stroke-width="1" />
  <circle cx="35.0" cy="25.0" r="2.857142857142857" fill="black" stroke="none" stroke-width="1" />
  <circle cx="25.0" cy="35.0" r="2.857142857142857" fill="black" stroke="none" stroke-width="1" />
  <circle cx="35.0" cy="35.0" r="2.857142857142857" fill="black" stroke="none" stroke-width="1" />
  <circle cx="45.0" cy="25.0" r="2.857142857142857" fill="black" stroke="none" stroke-width="1" />
  <circle cx="45.0" cy="35.0" r="2.857142857142857" fill="black" stroke="none" stroke-width="1" />
  <circle cx="55.0" cy="25.0" r="2.857142857142857" fill="black" stroke="none" stroke-width="1" />
  <circle cx="55.0" cy="35.0" r="2.857142857142857" fill="black" stroke="none" stroke-width="1" />
  <circle cx="65.0" cy="25.0" r="2.857142857142857" fill="black" stroke="none" stroke-width="1" />
  <circle cx="65.0" cy="35.0" r="2.857142857142857" fill="black" stroke="none" stroke-width="1" />
  <circle cx="75.0" cy="25.0" r="2.857142857142857" fill="black" stroke="none" stroke-width="1" />
  <circle cx="75.0" cy="35.0" r="2.857142857142857" fill="black" stroke="none" stroke-width="1" />
  <circle cx="45.0" cy="45.0" r="2.857142857142857" fill="black" stroke="none" stroke-width="1" />
  <circle cx="55.0" cy="45.0" r="2.857142857142857" fill="black" stroke="none" stroke-width="1" />
  <circle cx="45.0" cy="55.0" r="2.857142857142857" fill="black" stroke="none" stroke-width="1" />
  <circle cx="55.0" cy="55.0" r="2.857142857142857" fill="black" stroke="none" stroke-width="1" />
  <circle cx="45.0" cy="65.0" r="2.857142857142857" fill="black" stroke="none" stroke-width="1" />
  <circle cx="55.0" cy="65.0" r="2.857142857142857" fill="black" stroke="none" stroke-width="1" />
  <circle cx="45.0" cy="75.0" r="2.857142857142857" fill="black" stroke="none" stroke-width="1" />
  <circle cx="55.0" cy="75.0" r="2.857142857142857" fill="black" stroke="none" stroke-width="1" />
  <circle cx="45.0" cy="85.0" r="2.857142857142857" fill="black" stroke="none" stroke-width="1" />
  <circle cx="55.0" cy="85.0" r="2.857142857142857" fill="black" stroke="none" stroke-width="1" />
  <circle cx="85.0" cy="25.0" r="2.857142857142857" fill="black" stroke="none" stroke-width="1" />
  <circle cx="95.0" cy="25.0" r="2.857142857142857" fill="black" stroke="none" stroke-width="1" />
  <circle cx="85.0" cy="35.0" r="2.857142857142857" fill="black" stroke="none" stroke-width="1" />
  <circle cx="95.0" cy="35.0" r="2.857142857142857" fill="black" stroke="none" stroke-width="1" />
  <circle cx="85.0" cy="45.0" r="2.857142857142857" fill="black" stroke="none" stroke-width="1" />
  <circle cx="95.0" cy="45.0" r="2.857142857142857" fill="black" stroke="none" stroke-width="1" />
  <circle cx="85.0" cy="55.0" r="2.857142857142857" fill="black" stroke="none" stroke-width="1" />
  <circle cx="95.0" cy="55.0" r="2.857142857142857" fill="black" stroke="none" stroke-width="1" />
  <circle cx="85.0" cy="65.0" r="2.857142857142857" fill="black" stroke="none" stroke-width="1" />
  <circle cx="95.0" cy="65.0" r="2.857142857142857" fill="black" stroke="none" stroke-width="1" />
  <circle cx="85.0" cy="75.0" r="2.857142857142857" fill="black" stroke="none" stroke-width="1" />
  <circle cx="95.0" cy="75.0" r="2.857142857142857" fill="black" stroke="none" stroke-width="1" />
  <circle cx="85.0" cy="85.0" r="2.857142857142857" fill="black" stroke="none" stroke-width="1" />
  <circle cx="95.0" cy="85.0" r="2.857142857142857" fill="black" stroke="none" stroke-width="1" />
  <circle cx="105.0" cy="25.0" r="2.857142857142857" fill="black" stroke="none" stroke-width="1" />
  <circle cx="105.0" cy="35.0" r="2.857142857142857" fill="black" stroke="none" stroke-width="1" />
  <circle cx="115.0" cy="25.0" r="2.857142857142857" fill="black" stroke="none" stroke-width="1" />
  <circle cx="115.0" cy="35.0" r="2.857142857142857" fill="black" stroke="none" stroke-width="1" />
  <circle cx="125.0" cy="35.0" r="2.857142857142857" fill="black" stroke="none" stroke-width="1" />
  <circle cx="115.0" cy="45.0" r="2.857142857142857" fill="black" stroke="none" stroke-width="1" />
  <circle cx="125.0" cy="45.0" r="2.857142857142857" fill="black" stroke="none" stroke-width="1" />
  <circle cx="115.0" cy="55.0" r="2.857142857142857" fill="black" stroke="none" stroke-width="1" />
  <circle cx="125.0" cy="55.0" r="2.857142857142857" fill="black" stroke="none" stroke-width="1" />
  <circle cx="115.0" cy="65.0" r="2.857142857142857" fill="black" stroke="none" stroke-width="1" />
  <circle cx="125.0" cy="65.0" r="2.857142857142857" fill="black" stroke="none" stroke-width="1" />
  <circle cx="115.0" cy="75.0" r="2.857142857142857" fill="black" stroke="none" stroke-width="1" />
  <circle cx="125.0" cy="75.0" r="2.857142857142857" fill="black" stroke="none" stroke-width="1" />
  <circle cx="105.0" cy="75.0" r="2.857142857142857" fill="black" stroke="none" stroke-width="1" />
  <circle cx="105.0" cy="85.0" r="2.857142857142857" fill="black" stroke="none" stroke-width="1" />
  <circle cx="115.0" cy="85.0" r="2.857142857142857" fill="black" stroke="none" stroke-width="1" />
  <circle cx="20.0" cy="20.0" r="2.197802197802198" fill="black" stroke="none" stroke-width="1" />
  <circle cx="30.0" cy="20.0" r="2.197802197802198" fill="black" stroke="none" stroke-width="1" />
  <circle cx="20.0" cy="30.0" r="2.197802197802198" fill="black" stroke="none" stroke-width="1" />
  <circle cx="40.0" cy="20.0" r="2.197802197802198" fill="black" stroke="none" stroke-width="1" />
  <circle cx="20.0" cy="40.0" r="2.197802197802198" fill="black" stroke="none" stroke-width="1" />
  <circle cx="30.0" cy="40.0" r="2.197802197802198" fill="black" stroke="none" stroke-width="1" />
  <circle cx="40.0" cy="40.0" r="2.197802197802198" fill="black" stroke="none" stroke-width="1" />
  <circle cx="50.0" cy="20.0" r="2.197802197802198" fill="black" stroke="none" stroke-width="1" />
  <circle cx="60.0" cy="20.0" r="2.197802197802198" fill="black" stroke="none" stroke-width="1" />
  <circle cx="60.0" cy="40.0" r="2.197802197802198" fill="black" stroke="none" stroke-width="1" />
  <circle cx="70.0" cy="20.0" r="2.197802197802198" fill="black" stroke="none" stroke-width="1" />
  <circle cx="70.0" cy="40.0" r="2.197802197802198" fill="black" stroke="none" stroke-width="1" />
  <circle cx="80.0" cy="20.0" r="2.197802197802198" fill="black" stroke="none" stroke-width="1" />
  <circle cx="80.0" cy="30.0" r="2.197802197802198" fill="black" stroke="none" stroke-width="1" />
  <circle cx="80.0" cy="40.0" r="2.197802197802198" fill="black" stroke="none" stroke-width="1" />
  <circle cx="40.0" cy="50.0" r="2.197802197802198" fill="black" stroke="none" stroke-width="1" />
  <circle cx="60.0" cy="50.0" r="2.197802197802198" fill="black" stroke="none" stroke-width="1" />
  <circle cx="40.0" cy="60.0" r="2.197802197802198" fill="black" stroke="none" stroke-width="1" />
  <circle cx="60.0" cy="60.0" r="2.197802197802198" fill="black" stroke="none" stroke-width="1" />
  <circle cx="40.0" cy="70.0" r="2.197802197802198" fill="black" stroke="none" stroke-width="1" />
  <circle cx="60.0" cy="70.0" r="2.197802197802198" fill="black" stroke="none" stroke-width="1" />
  <circle cx="40.0" cy="80.0" r="2.197802197802198" fill="black" stroke="none" stroke-width="1" />
  <circle cx="60.0" cy="80.0" r="2.197802197802198" fill="black" stroke="none" stroke-width="1" />
  <circle cx="40.0" cy="90.0" r="2.197802197802198" fill="black" stroke="none" stroke-width="1" />
  <circle cx="50.0" cy="90.0" r="2.197802197802198" fill="black" stroke="none" stroke-width="1" />
  <circle cx="60.0" cy="90.0" r="2.197802197802198" fill="black" stroke="none" stroke-width="1" />
  <circle cx="90.0" cy="20.0" r="2.197802197802198" fill="black" stroke="none" stroke-width="1" />
  <circle cx="100.0" cy="20.0" r="2.197802197802198" fill="black" stroke="none" stroke-width="1" />
  <circle cx="100.0" cy="40.0" r="2.197802197802198" fill="black" stroke="none" stroke-width="1" />
  <circle cx="80.0" cy="50.0" r="2.197802197802198" fill="black" stroke="none" stroke-width="1" />
  <circle cx="100.0" cy="50.0" r="2.197802197802198" fill="black" stroke="none" stroke-width="1" />
  <circle cx="80.0" cy="60.0" r="2.197802197802198" fill="black" stroke="none" stroke-width="1" />
  <circle cx="100.0" cy="60.0" r="2.197802197802198" fill="black" stroke="none" stroke-width="1" />
  <circle cx="80.0" cy="70.0" r="2.197802197802198" fill="black" stroke="none" stroke-width="1" />
  <circle cx="100.0" cy="70.0" r="2.197802197802198" fill="black" stroke="none" stroke-width="1" />
  <circle cx="80.0" cy="80.0" r="2.197802197802198" fill="black" stroke="none" stroke-width="1" />
  <circle cx="80.0" cy="90.0" r="2.197802197802198" fill="black" stroke="none" stroke-width="1" />
  <circle cx="90.0" cy="90.0" r="2.197802197802198" fill="black" stroke="none" stroke-width="1" />
  <circle cx="100.0" cy="90.0" r="2.197802197802198" fill="black" stroke="none" stroke-width="1" />
  <circle cx="110.0" cy="20.0" r="2.197802197802198" fill="black" stroke="none" stroke-width="1" />
  <circle cx="110.0" cy="40.0" r="2.197802197802198" fill="black" stroke="none" stroke-width="1" />
  <circle cx="120.0" cy="20.0" r="2.197802197802198" fill="black" stroke="none" stroke-width="1" />
  <circle cx="120.0" cy="30.0" r="2.197802197802198" fill="black" stroke="none" stroke-width="1" />
  <circle cx="130.0" cy="30.0" r="2.197802197802198" fill="black" stroke="none" stroke-width="1" />
  <circle cx="130.0" cy="40.0" r="2.197802197802198" fill="black" stroke="none" stroke-width="1" />
  <circle cx="110.0" cy="50.0" r="2.197802197802198" fill="black" stroke="none" stroke-width="1" />
  <circle cx="130.0" cy="50.0" r="2.197802197802198" fill="black" stroke="none" stroke-width="1" />
  <circle cx="110.0" cy="60.0" r="2.197802197802198" fill="black" stroke="none" stroke-width="1" />
  <circle cx="130.0" cy="60.0" r="2.197802197802198" fill="black" stroke="none" stroke-width="1" />
  <circle cx="110.0" cy="70.0" r="2.197802197802198" fill="black" stroke="none" stroke-width="1" />
  <circle cx="130.0" cy="70.0" r="2.197802197802198" fill="black" stroke="none" stroke-width="1" />
  <circle cx="120.0" cy="80.0" r="2.197802197802198" fill="black" stroke="none" stroke-width="1" />
  <circle cx="130.0" cy="80.0" r="2.197802197802198" fill="black" stroke="none" stroke-width="1" />
  <circle cx="110.0" cy="90.0" r="2.197802197802198" fill="black" stroke="none" stroke-width="1" />
  <circle cx="120.0" cy="90.0" r="2.197802197802198" fill="black" stroke="none" stroke-width="1" />
  <circle cx="15.0" cy="15.0" r="1.292824822236587" fill="black" stroke="none" stroke-width="1" />
  <circle cx="25.0" cy="15.0" r="1.292824822236587" fill="black" stroke="none" stroke-width="1" />
  <circle cx="15.0" cy="25.0" r="1.292824822236587" fill="black" stroke="none" stroke-width="1" />
  <circle cx="35.0" cy="15.0" r="1.292824822236587" fill="black" stroke="none" stroke-width="1" />
  <circle cx="15.0" cy="35.0" r="1.292824822236587" fill="black" stroke="none" stroke-width="1" />
  <circle cx="45.0" cy="15.0" r="1.292824822236587" fill="black" stroke="none" stroke-width="1" />
  <circle cx="15.0" cy="45.0" r="1.292824822236587" fill="black" stroke="none" stroke-width="1" />
  <circle cx="25.0" cy="45.0" r="1.292824822236587" fill="black" stroke="none" stroke-width="1" />
  <circle cx="35.0" cy="45.0" r="1.292824822236587" fill="black" stroke="none" stroke-width="1" />
  <circle cx="55.0" cy="15.0" r="1.292824822236587" fill="black" stroke="none" stroke-width="1" />
  <circle cx="65.0" cy="15.0" r="1.292824822236587" fill="black" stroke="none" stroke-width="1" />
  <circle cx="65.0" cy="45.0" r="1.292824822236587" fill="black" stroke="none" stroke-width="1" />
  <circle cx="75.0" cy="15.0" r="1.292824822236587" fill="black" stroke="none" stroke-width="1" />
  <circle cx="75.0" cy="45.0" r="1.292824822236587" fill="black" stroke="none" stroke-width="1" />
  <circle cx="85.0" cy="15.0" r="1.292824822236587" fill="black" stroke="none" stroke-width="1" />
  <circle cx="35.0" cy="55.0" r="1.292824822236587" fill="black" stroke="none" stroke-width="1" />
  <circle cx="65.0" cy="55.0" r="1.292824822236587" fill="black" stroke="none" stroke-width="1" />
  <circle cx="35.0" cy="65.0" r="1.292824822236587" fill="black" stroke="none" stroke-width="1" />
  <circle cx="65.0" cy="65.0" r="1.292824822236587" fill="black" stroke="none" stroke-width="1" />
  <circle cx="35.0" cy="75.0" r="1.292824822236587" fill="black" stroke="none" stroke-width="1" />
  <circle cx="65.0" cy="75.0" r="1.292824822236587" fill="black" stroke="none" stroke-width="1" />
  <circle cx="35.0" cy="85.0" r="1.292824822236587" fill="black" stroke="none" stroke-width="1" />
  <circle cx="65.0" cy="85.0" r="1.292824822236587" fill="black" stroke="none" stroke-width="1" />
  <circle cx="35.0" cy="95.0" r="1.292824822236587" fill="black" stroke="none" stroke-width="1" />
  <circle cx="45.0" cy="95.0" r="1.292824822236587" fill="black" stroke="none" stroke-width="1" />
  <circle cx="55.0" cy="95.0" r="1.292824822236587" fill="black" stroke="none" stroke-width="1" />
  <circle cx="65.0" cy="95.0" r="1.292824822236587" fill="black" stroke="none" stroke-width="1" />
  <circle cx="95.0" cy="15.0" r="1.292824822236587" fill="black" stroke="none" stroke-width="1" />
  <circle cx="105.0" cy="15.0" r="1.292824822236587" fill="black" stroke="none" stroke-width="1" />
  <circle cx="105.0" cy="45.0" r="1.292824822236587" fill="black" stroke="none" stroke-width="1" />
  <circle cx="75.0" cy="55.0" r="1.292824822236587" fill="black" stroke="none" stroke-width="1" />
  <circle cx="105.0" cy="55.0" r="1.292824822236587" fill="black" stroke="none" stroke-width="1" />
  <circle cx="75.0" cy="65.0" r="1.292824822236587" fill="black" stroke="none" stroke-width="1" />
  <circle cx="105.0" cy="65.0" r="1.292824822236587" fill="black" stroke="none" stroke-width="1" />
  <circle cx="75.0" cy="75.0" r="1.292824822236587" fill="black" stroke="none" stroke-width="1" />
  <circle cx="75.0" cy="85.0" r="1.292824822236587" fill="black" stroke="none" stroke-width="1" />
  <circle cx="75.0" cy="95.0" r="1.292824822236587" fill="black" stroke="none" stroke-width="1" />
  <circle cx="85.0" cy="95.0" r="1.292824822236587" fill="black" stroke="none" stroke-width="1" />
  <circle cx="95.0" cy="95.0" r="1.292824822236587" fill="black" stroke="none" stroke-width="1" />
  <circle cx="105.0" cy="95.0" r="1.292824822236587" fill="black" stroke="none" stroke-width="1" />
  <circle cx="115.0" cy="15.0" r="1.292824822236587" fill="black" stroke="none" stroke-width="1" />
  <circle cx="125.0" cy="15.0" r="1.292824822236587" fill="black" stroke="none" stroke-width="1" />
  <circle cx="125.0" cy="25.0" r="1.292824822236587" fill="black" stroke="none" stroke-width="1" />
  <circle cx="135.0" cy="25.0" r="1.292824822236587" fill="black" stroke="none" stroke-width="1" />
  <circle cx="135.0" cy="35.0" r="1.292824822236587" fill="black" stroke="none" stroke-width="1" />
  <circle cx="135.0" cy="45.0" r="1.292824822236587" fill="black" stroke="none" stroke-width="1" />
  <circle cx="135.0" cy="55.0" r="1.292824822236587" fill="black" stroke="none" stroke-width="1" />
  <circle cx="135.0" cy="65.0" r="1.292824822236587" fill="black" stroke="none" stroke-width="1" />
  <circle cx="135.0" cy="75.0" r="1.292824822236587" fill="black" stroke="none" stroke-width="1" />
  <circle cx="125.0" cy="85.0" r="1.292824822236587" fill="black" stroke="none" stroke-width="1" />
  <circle cx="135.0" cy="85.0" r="1.292824822236587" fill="black" stroke="none" stroke-width="1" />
  <circle cx="115.0" cy="95.0" r="1.292824822236587" fill="black" stroke="none" stroke-width="1" />
  <circle cx="125.0" cy="95.0" r="1.292824822236587" fill="black" stroke="none" stroke-width="1" />
</svg>