<svg xmlns="http://www.w3.org/2000/svg" viewBox="0 0 200 100">
<!-- T top -->
  <circle cx="30" cy="30" r="4" fill="black"/>
  <circle cx="40" cy="30" r="4" fill="black"/>
  <circle cx="50" cy="30" r="4" fill="black"/>
  <circle cx="60" cy="30" r="4" fill="black"/>
  <circle cx="70" cy="30" r="4" fill="black"/>


<!-- T vertical bar -->
  <circle cx="50" cy="40" r="4" fill="black"/>
  <circle cx="50" cy="50" r="4" fill="black"/>
  <circle cx="50" cy="60" r="4" fill="black"/>
  <circle cx="50" cy="70" r="4" fill="black"/>
  <circle cx="50" cy="80" r="4" fill="black"/>

<!-- D vertical bar -->
  <circle cx="90" cy="30" r="4" fill="black"/>
  <circle cx="90" cy="40" r="4" fill="black"/>
  <circle cx="90" cy="50" r="4" fill="black"/>
  <circle cx="90" cy="60" r="4" fill="black"/>
  <circle cx="90" cy="70" r="4" fill="black"/>
  <circle cx="90" cy="80" r="4" fill="black"/>

<!-- D round -->
  <circle cx="100" cy="30" r="4" fill="black"/>
  <circle cx="110" cy="30" r="4" fill="black"/>
  <circle cx="120" cy="40" r="4" fill="black"/>
  <circle cx="120" cy="50" r="4" fill="black"/>
  <circle cx="120" cy="60" r="4" fill="black"/>
  <circle cx="120" cy="70" r="4" fill="black"/>
  <circle cx="110" cy="80" r="4" fill="black"/>
  <circle cx="100" cy="80" r="4" fill="black"/>
</svg>
